<mxfile host="app.diagrams.net" modified="2022-09-24T23:31:17.722Z" agent="5.0 (X11; CrOS x86_64 14695.124.0) AppleWebKit/537.36 (KHTML, like Gecko) Chrome/102.0.0.0 Safari/537.36" etag="R27jH9SJydQSAOXdzPSF" version="20.3.6" type="github">
  <diagram id="tXWmWhoAyuDkmaUj9GU4" name="Page-1">
    <mxGraphModel dx="668" dy="366" grid="1" gridSize="10" guides="1" tooltips="1" connect="1" arrows="1" fold="1" page="1" pageScale="1" pageWidth="850" pageHeight="1100" background="#114B5F" math="0" shadow="0">
      <root>
        <mxCell id="0" />
        <mxCell id="1" parent="0" />
        <mxCell id="6CUeGVzM4DszGZV-7slT-3" value="" style="edgeStyle=orthogonalEdgeStyle;rounded=0;orthogonalLoop=1;jettySize=auto;html=1;labelBackgroundColor=#114B5F;strokeColor=#028090;fontColor=#E4FDE1;" edge="1" parent="1" source="6CUeGVzM4DszGZV-7slT-1" target="6CUeGVzM4DszGZV-7slT-2">
          <mxGeometry relative="1" as="geometry" />
        </mxCell>
        <mxCell id="6CUeGVzM4DszGZV-7slT-1" value="Prologue" style="ellipse;whiteSpace=wrap;html=1;fillColor=#F45B69;strokeColor=#028090;fontColor=#E4FDE1;" vertex="1" parent="1">
          <mxGeometry x="210" y="90" width="120" height="80" as="geometry" />
        </mxCell>
        <mxCell id="6CUeGVzM4DszGZV-7slT-7" value="" style="edgeStyle=orthogonalEdgeStyle;orthogonalLoop=1;jettySize=auto;html=1;rounded=0;labelBackgroundColor=#114B5F;strokeColor=#028090;fontColor=#E4FDE1;" edge="1" parent="1" source="6CUeGVzM4DszGZV-7slT-2" target="6CUeGVzM4DszGZV-7slT-6">
          <mxGeometry relative="1" as="geometry" />
        </mxCell>
        <mxCell id="6CUeGVzM4DszGZV-7slT-9" value="" style="edgeStyle=orthogonalEdgeStyle;rounded=0;orthogonalLoop=1;jettySize=auto;html=1;labelBackgroundColor=#114B5F;strokeColor=#028090;fontColor=#E4FDE1;" edge="1" parent="1" source="6CUeGVzM4DszGZV-7slT-2" target="6CUeGVzM4DszGZV-7slT-8">
          <mxGeometry relative="1" as="geometry" />
        </mxCell>
        <mxCell id="6CUeGVzM4DszGZV-7slT-2" value="The player wakes up and looks around, confused." style="whiteSpace=wrap;html=1;fillColor=#F45B69;strokeColor=#028090;fontColor=#E4FDE1;" vertex="1" parent="1">
          <mxGeometry x="210" y="230" width="120" height="60" as="geometry" />
        </mxCell>
        <mxCell id="6CUeGVzM4DszGZV-7slT-12" style="edgeStyle=orthogonalEdgeStyle;orthogonalLoop=1;jettySize=auto;html=1;exitX=0.55;exitY=0.95;exitDx=0;exitDy=0;exitPerimeter=0;entryX=0.4;entryY=0.1;entryDx=0;entryDy=0;entryPerimeter=0;fontSize=11;rounded=0;labelBackgroundColor=#114B5F;strokeColor=#028090;fontColor=#E4FDE1;" edge="1" parent="1" source="6CUeGVzM4DszGZV-7slT-6" target="6CUeGVzM4DszGZV-7slT-10">
          <mxGeometry relative="1" as="geometry" />
        </mxCell>
        <mxCell id="6CUeGVzM4DszGZV-7slT-6" value="&lt;font style=&quot;font-size: 11px;&quot;&gt;Player: &quot;Where... Am I?&quot;&lt;/font&gt;" style="ellipse;shape=cloud;whiteSpace=wrap;html=1;fillColor=#F45B69;strokeColor=#028090;fontColor=#E4FDE1;" vertex="1" parent="1">
          <mxGeometry x="390" y="230" width="100" height="100" as="geometry" />
        </mxCell>
        <mxCell id="6CUeGVzM4DszGZV-7slT-11" value="" style="edgeStyle=orthogonalEdgeStyle;orthogonalLoop=1;jettySize=auto;html=1;fontSize=7;rounded=0;labelBackgroundColor=#114B5F;strokeColor=#028090;fontColor=#E4FDE1;" edge="1" parent="1" source="6CUeGVzM4DszGZV-7slT-8" target="6CUeGVzM4DszGZV-7slT-10">
          <mxGeometry relative="1" as="geometry" />
        </mxCell>
        <mxCell id="6CUeGVzM4DszGZV-7slT-17" style="edgeStyle=orthogonalEdgeStyle;rounded=0;orthogonalLoop=1;jettySize=auto;html=1;exitX=0.5;exitY=1;exitDx=0;exitDy=0;entryX=0.5;entryY=0;entryDx=0;entryDy=0;fontSize=8;labelBackgroundColor=#114B5F;strokeColor=#028090;fontColor=#E4FDE1;" edge="1" parent="1" source="6CUeGVzM4DszGZV-7slT-8" target="6CUeGVzM4DszGZV-7slT-15">
          <mxGeometry relative="1" as="geometry" />
        </mxCell>
        <mxCell id="6CUeGVzM4DszGZV-7slT-8" value="&lt;font style=&quot;font-size: 7px;&quot;&gt;Player is given control and walks to the right, entering a cemetery. At the end, he kneels and sees his own name on a gravestone.&lt;/font&gt;" style="whiteSpace=wrap;html=1;fillColor=#F45B69;strokeColor=#028090;fontColor=#E4FDE1;" vertex="1" parent="1">
          <mxGeometry x="210" y="340" width="120" height="60" as="geometry" />
        </mxCell>
        <mxCell id="6CUeGVzM4DszGZV-7slT-14" style="edgeStyle=orthogonalEdgeStyle;orthogonalLoop=1;jettySize=auto;html=1;exitX=0.55;exitY=0.95;exitDx=0;exitDy=0;exitPerimeter=0;entryX=0.625;entryY=0.2;entryDx=0;entryDy=0;entryPerimeter=0;fontSize=11;rounded=0;labelBackgroundColor=#114B5F;strokeColor=#028090;fontColor=#E4FDE1;" edge="1" parent="1" source="6CUeGVzM4DszGZV-7slT-10" target="6CUeGVzM4DszGZV-7slT-13">
          <mxGeometry relative="1" as="geometry" />
        </mxCell>
        <mxCell id="6CUeGVzM4DszGZV-7slT-10" value="&lt;font style=&quot;font-size: 10px;&quot;&gt;Player: &quot;Is this...&quot;&lt;/font&gt;" style="ellipse;shape=cloud;whiteSpace=wrap;html=1;fillColor=#F45B69;strokeColor=#028090;fontColor=#E4FDE1;" vertex="1" parent="1">
          <mxGeometry x="390" y="360" width="120" height="80" as="geometry" />
        </mxCell>
        <mxCell id="6CUeGVzM4DszGZV-7slT-22" value="" style="edgeStyle=orthogonalEdgeStyle;rounded=0;orthogonalLoop=1;jettySize=auto;html=1;fontSize=10;labelBackgroundColor=#114B5F;strokeColor=#028090;fontColor=#E4FDE1;" edge="1" parent="1" source="6CUeGVzM4DszGZV-7slT-13" target="6CUeGVzM4DszGZV-7slT-21">
          <mxGeometry relative="1" as="geometry" />
        </mxCell>
        <mxCell id="6CUeGVzM4DszGZV-7slT-13" value="???: &quot;Yes, it was.&quot;" style="ellipse;shape=cloud;whiteSpace=wrap;html=1;fontSize=11;fillColor=#F45B69;strokeColor=#028090;fontColor=#E4FDE1;" vertex="1" parent="1">
          <mxGeometry x="370" y="450" width="120" height="80" as="geometry" />
        </mxCell>
        <mxCell id="6CUeGVzM4DszGZV-7slT-18" style="edgeStyle=orthogonalEdgeStyle;rounded=0;orthogonalLoop=1;jettySize=auto;html=1;exitX=1;exitY=0.5;exitDx=0;exitDy=0;entryX=0.07;entryY=0.4;entryDx=0;entryDy=0;entryPerimeter=0;fontSize=8;labelBackgroundColor=#114B5F;strokeColor=#028090;fontColor=#E4FDE1;" edge="1" parent="1" source="6CUeGVzM4DszGZV-7slT-15" target="6CUeGVzM4DszGZV-7slT-13">
          <mxGeometry relative="1" as="geometry" />
        </mxCell>
        <mxCell id="6CUeGVzM4DszGZV-7slT-15" value="&lt;font style=&quot;font-size: 8px;&quot;&gt;A spirit appears from off-screen and introduces itself as &quot;The Guide of Souls,&quot; and begins to explain the situation.&lt;/font&gt;" style="whiteSpace=wrap;html=1;fontSize=11;fillColor=#F45B69;strokeColor=#028090;fontColor=#E4FDE1;" vertex="1" parent="1">
          <mxGeometry x="210" y="430" width="120" height="60" as="geometry" />
        </mxCell>
        <mxCell id="6CUeGVzM4DszGZV-7slT-19" value="&lt;font style=&quot;font-size: 10px;&quot;&gt;Player: &quot;Does this mean...?&quot; &lt;br&gt;GoS: &quot;Yes. You are dead.&quot; &lt;br&gt;Player; &quot;Dead...?&quot; &lt;br&gt;GoS: &quot;Dead.&quot; &lt;br&gt;Player: &quot;Who... who am... who was I?&quot; &lt;br&gt;GoS: &quot;You don&#39;t know?&quot;&lt;/font&gt;" style="ellipse;shape=cloud;whiteSpace=wrap;html=1;fontSize=11;fillColor=#F45B69;strokeColor=#028090;fontColor=#E4FDE1;" vertex="1" parent="1">
          <mxGeometry x="510" y="510" width="210" height="140" as="geometry" />
        </mxCell>
        <mxCell id="6CUeGVzM4DszGZV-7slT-24" value="" style="edgeStyle=orthogonalEdgeStyle;rounded=0;orthogonalLoop=1;jettySize=auto;html=1;fontSize=10;labelBackgroundColor=#114B5F;strokeColor=#028090;fontColor=#E4FDE1;" edge="1" parent="1" source="6CUeGVzM4DszGZV-7slT-21" target="6CUeGVzM4DszGZV-7slT-23">
          <mxGeometry relative="1" as="geometry" />
        </mxCell>
        <mxCell id="6CUeGVzM4DszGZV-7slT-21" value="&lt;span style=&quot;font-size: 10px;&quot;&gt;Player: &quot;W-who...&quot;&lt;/span&gt;" style="ellipse;shape=cloud;whiteSpace=wrap;html=1;fontSize=11;fillColor=#F45B69;strokeColor=#028090;fontColor=#E4FDE1;" vertex="1" parent="1">
          <mxGeometry x="370" y="550" width="120" height="80" as="geometry" />
        </mxCell>
        <mxCell id="6CUeGVzM4DszGZV-7slT-23" value="&lt;font style=&quot;font-size: 8px;&quot;&gt;GoS: &quot;I am merely a humble guide, for souls such as yourself.&quot;&lt;/font&gt;" style="ellipse;shape=cloud;whiteSpace=wrap;html=1;fontSize=11;fillColor=#F45B69;strokeColor=#028090;fontColor=#E4FDE1;" vertex="1" parent="1">
          <mxGeometry x="230" y="550" width="120" height="80" as="geometry" />
        </mxCell>
      </root>
    </mxGraphModel>
  </diagram>
</mxfile>
